HIERARCHY
ROOT Hips
{
	OFFSET 0.000000 0.000000 0.000000 
	CHANNELS 6 Xposition Yposition Zposition Yrotation Zrotation Xrotation 
	JOINT Lumbar
	{
		OFFSET 0.000000 0.000000 0.000000 
		CHANNELS 3 Zrotation Xrotation Yrotation
		JOINT Neck
		{
			OFFSET 0.000000 0.445665 0.000000 
			CHANNELS 3 Zrotation Xrotation Yrotation
			End Site
			{
				OFFSET 0.000000 0.227535 0.000000 
			}
		}
		JOINT RightShoulder
		{
			OFFSET 0.019635 0.377685 0.194865 
			CHANNELS 3 Zrotation Xrotation Yrotation
			JOINT RightElbow
			{
				OFFSET 0.000000 -0.243375 0.000000 
				CHANNELS 2 Zrotation Yrotation
				JOINT RightWrist
				{
					OFFSET 0.000000 -0.264825 0.000000 
					CHANNELS 2 Zrotation Xrotation
					End Site
					{
						OFFSET 0.006600 -0.176220 0.000990 
					}
				}
			}
		}
		JOINT LeftShoulder
		{
			OFFSET 0.019635 0.377685 -0.194865 
			CHANNELS 3 Zrotation Xrotation Yrotation
			JOINT LeftElbow
			{
				OFFSET 0.000000 -0.243375 0.000000 
				CHANNELS 2 Zrotation Yrotation
				JOINT LeftWrist
				{
					OFFSET 0.000000 -0.264825 0.000000 
					CHANNELS 2 Zrotation Xrotation
					End Site
					{
						OFFSET 0.006600 -0.176220 -0.000990 
					}
				}
			}
		}
	}
	JOINT RightHip
	{
		OFFSET 0.052140 -0.069960 0.075570 
		CHANNELS 3 Zrotation Xrotation Yrotation
		JOINT RightKnee
		{
			OFFSET 0.000000 -0.402270 0.000000 
			CHANNELS 1 Zrotation
			JOINT RightAnkle
			{
				OFFSET 0.000000 -0.404085 0.000000 
				CHANNELS 3 Zrotation Xrotation Yrotation
				End Site
				{
					OFFSET 0.204105 -0.089430 0.008415 
				}
			}
		}
	}
	JOINT LeftHip
	{
		OFFSET 0.052140 -0.069960 -0.075570 
		CHANNELS 3 Zrotation Xrotation Yrotation
		JOINT LeftKnee
		{
			OFFSET 0.000000 -0.402270 0.000000 
			CHANNELS 1 Zrotation
			JOINT LeftAnkle
			{
				OFFSET 0.000000 -0.404085 0.000000 
				CHANNELS 3 Zrotation Xrotation Yrotation
				End Site
				{
					OFFSET 0.204105 -0.089430 -0.008415 
				}
			}
		}
	}
}
MOTION
Frames: 14
Frame Time: 0.02
0.05186 -0.03842 -0.71525 328.92091 -41.50026 -3.01719 47.17312 0.92312 7.37795 3.32677 2.58778 -2.11994 17.25195 -51.93921 46.24492 94.35291 58.76114 14.91744 -8.59153 -23.83469 9.96402 -2.58792 29.54284 -99.39464 13.74286 -1.13901 34.97686 -7.81625 -7.47724 -26.08259 -7.35191 0.17595 -2.19915 70.71029 1.59106 6.08381 -27.46856 -10.43837 2.06348 3.42275
0.07214 -0.03658 -0.71218 328.99967 -41.56524 -2.68214 47.72393 0.67633 7.28802 3.21848 2.39503 -2.11994 15.62869 -51.93539 44.92671 94.84718 58.51955 15.17929 -8.43133 -23.09911 10.58035 -2.36499 29.06229 -99.20303 13.97652 -1.05387 34.47426 -8.53921 -6.81932 -26.63328 -7.67568 0.26269 -2.17074 69.72101 0.97504 6.61055 -27.80013 -10.19232 2.08816 3.42177
0.09264 -0.03422 -0.70887 329.20567 -41.57887 -2.33584 48.29102 0.40832 7.12733 3.03028 2.23602 -2.11994 13.7718 -51.91174 43.43557 95.34563 58.15571 15.46317 -8.35649 -22.33142 11.19709 -2.0422 28.60919 -98.85349 14.27859 -0.92064 34.08004 -9.28785 -6.25085 -27.41066 -8.09418 0.37786 -2.13297 68.50606 0.36941 7.38778 -27.9815 -9.82636 2.14493 3.43078
0.11296 -0.03213 -0.7057 329.35339 -41.60806 -1.99958 48.83951 0.15305 6.98792 2.88068 2.06077 -2.11994 12.04548 -51.88695 42.03549 95.83376 57.9371 15.71863 -8.22678 -21.57184 11.80885 -1.76904 28.14495 -98.59051 14.5364 -0.81534 33.68089 -10.0112 -5.61312 -28.14686 -8.47743 0.47876 -2.10026 67.37792 -0.23235 8.06763 -28.21598 -9.52087 2.18088 3.43259
0.13369 -0.0299 -0.7024 329.50656 -41.67186 -1.63845 49.44142 -0.11657 6.89556 2.71943 1.88754 -2.11994 10.20138 -51.90354 40.56662 96.36062 57.3707 16.04952 -8.15126 -20.83691 12.44303 -1.46984 27.66701 -98.28114 14.85113 -0.68812 33.09404 -10.79378 -5.07675 -28.62411 -8.83219 0.58551 -2.06424 66.31096 -0.87436 8.68673 -28.52371 -9.19296 2.24179 3.44506
0.15358 -0.02783 -0.69931 329.67814 -41.65104 -1.32874 49.93252 -0.3609 6.68618 2.56504 1.71935 -2.11994 8.55863 -51.8321 39.21292 96.80551 57.46557 16.23285 -7.99246 -20.04326 13.03005 -1.20761 27.22838 -98.01922 15.06146 -0.59256 32.92589 -11.45797 -4.36461 -29.69115 -9.26309 0.68611 -2.03304 65.06614 -1.42899 9.48116 -28.63971 -8.88251 2.2595 3.43825
0.17133 -0.0263 -0.69686 329.85838 -41.40482 -1.15486 50.12655 -0.5294 6.19355 2.43933 1.55028 -2.11994 7.45545 -51.49361 38.13382 97.03675 59.70043 15.95923 -7.53124 -19.10525 13.48295 -1.03113 26.87798 -97.99722 14.9871 -0.61092 33.86527 -11.79375 -3.06366 -32.35874 -9.93056 0.77062 -2.01531 63.37178 -1.73866 10.79086 -28.26197 -8.64552 2.1418 3.37171
0.18819 -0.02496 -0.69463 330.05414 -41.07587 -1.03529 50.20541 -0.67154 5.58197 2.32528 1.38653 -2.11994 6.5766 -51.07211 37.19205 97.1829 62.55738 15.54321 -6.99312 -18.10796 13.88839 -0.90375 26.57012 -98.01567 14.80216 -0.66008 35.2258 -12.00797 -1.5999 -35.60339 -10.66222 0.84641 -2.00321 61.50962 -1.96085 12.2521 -27.69545 -8.43057 1.98103 3.28615
0.20534 -0.02354 -0.69227 330.24945 -40.78707 -0.89716 50.32782 -0.82626 5.00964 2.21245 1.22478 -2.11994 5.64601 -50.70778 36.24703 97.35829 64.93466 15.22255 -6.52666 -17.13178 14.3181 -0.78095 26.25212 -97.96589 14.6539 -0.68468 36.40828 -12.27513 -0.26554 -38.57064 -11.33205 0.92137 -1.9898 59.73338 -2.22711 13.58206 -27.21454 -8.2077 1.84566 3.21204
0.22299 -0.02206 -0.69 330.42158 -40.48501 -0.73263 50.48798 -0.97973 4.49553 2.06923 1.04542 -2.11994 4.50028 -50.26203 35.05319 97.57217 68.11399 14.77801 -5.91238 -16.17887 14.73787 -0.5401 25.89436 -98.11395 14.56303 -0.75074 37.5398 -12.55482 1.30088 -41.62482 -12.14294 1.01825 -1.97046 57.90714 -2.47668 15.18013 -26.72878 -7.97173 1.68731 3.12664
0.23937 -0.02075 -0.68761 330.64378 -40.1925 -0.63628 50.54198 -1.12863 3.83513 1.99318 0.90372 -2.11994 3.85259 -49.96472 34.40358 97.68748 69.80381 14.55147 -5.58119 -15.16404 15.16532 -0.55927 25.63141 -97.87067 14.32834 -0.74026 38.87407 -12.77682 2.42244 -44.61315 -12.67416 1.06614 -1.96534 56.14973 -2.73808 16.25766 -26.21089 -7.77001 1.56554 3.05983
0.25253 -0.01986 -0.68487 331.00154 -39.93903 -0.71364 50.33013 -1.27679 2.78103 2.09989 0.86326 -2.11994 4.58208 -50.11247 35.30102 97.53552 66.95547 15.01248 -6.09748 -13.99214 15.63975 -1.27517 25.60137 -96.45812 13.69862 -0.49455 40.68141 -12.88898 2.28827 -47.43539 -12.41678 0.98858 -1.99453 54.61164 -3.07306 15.81429 -25.64502 -7.6563 1.56055 3.05148
0.26442 -0.01912 -0.682 331.40829 -39.69985 -0.85777 50.0156 -1.42018 1.58812 2.27421 0.86063 -2.11994 5.79547 -50.40998 36.72755 97.29052 62.63796 15.6883 -6.89211 -12.76087 16.12045 -2.25297 25.66878 -94.66523 12.93239 -0.17385 42.67423 -12.94317 1.70022 -50.13852 -11.87609 0.86049 -2.03853 53.15222 -3.4196 14.84899 -25.05512 -7.5771 1.59277 3.06201
0.27684 -0.01832 -0.67918 331.79127 -39.45913 -0.97256 49.74846 -1.56201 0.47091 2.4179 0.84147 -2.11994 6.75153 -50.62907 37.86197 97.09814 59.17295 16.23226 -7.52814 -11.55655 16.58959 -3.11793 25.70334 -93.09957 12.24458 0.10134 44.57152 -13.01122 1.31042 -52.79529 -11.46419 0.7503 -2.07811 51.66535 -3.74781 14.15213 -24.48047 -7.48345 1.60427 3.06217
